#!OML:ASF H:\ManfredObstacles\Project 1\Capture day 2\Session 1\male.ASF
:FULLY-SPECIFIED
:DEGREES
257
root 2.88709 14.8816 7.06254 -154.768 -19.9573 -178.152
lowerback 35.943 5.53119 -2.23805
upperback 15.9226 1.94246 3.00285
thorax -0.751576 -0.946406 3.71487
lowerneck -31.1309 -4.69836 -3.06036
upperneck 25.3233 -7.78035 7.06248
head 14.2955 -2.60668 1.73659
rclavicle 9.93923e-015 -3.8266e-015
rhumerus -10.5099 15.6796 -93.0952
rradius 64.2257
rwrist 30.6489
rhand -11.2869 -18.006
rfingers 7.12502
rthumb 14.7441 -47.4616
lclavicle 9.93923e-015 -3.8266e-015
lhumerus -10.5895 -42.1714 88.9335
lradius 72.8243
lwrist -26.6062
lhand -14.9235 28.1966
lfingers 7.12502
lthumb 11.2385 57.8756
rfemur -51.6213 6.27578 27.9255
rtibia 54.5626
rfoot -20.4896 -18.89
rtoes -7.85798
lfemur -70.4677 -9.09681 -11.7902
ltibia 40.7898
lfoot 3.64197 23.2915
ltoes -9.30563
258
root 2.86276 14.8529 6.94409 -154.828 -19.9531 -178.101
lowerback 35.9331 5.45881 -2.27017
upperback 15.9255 1.83519 3.00351
thorax -0.738789 -1.00374 3.76678
lowerneck -31.1682 -4.61235 -3.15921
upperneck 25.3941 -7.62822 7.09073
head 14.3294 -2.54679 1.79757
rclavicle -1.78906e-015 2.18663e-015
rhumerus -10.5778 15.7207 -93.1688
rradius 64.224
rwrist 30.588
rhand -11.291 -18.0094
rfingers 7.12502
rthumb 14.7401 -47.4653
lclavicle -1.78906e-015 2.18663e-015
lhumerus -10.5213 -41.8856 88.9208
lradius 72.5942
lwrist -26.5037
lhand -15.0654 28.2712
lfingers 7.12502
lthumb 11.1017 57.9575
rfemur -51.3905 5.94373 28.3757
rtibia 55.2846
rfoot -20.9016 -18.933
rtoes -8.4284
lfemur -70.39 -9.02817 -12.0756
ltibia 40.2142
lfoot 3.94254 22.4626
ltoes -10.0316
259
root 2.83935 14.8226 6.82529 -154.96 -19.8932 -178.013
lowerback 36.0554 5.35454 -2.32213
upperback 15.9023 1.66788 2.95973
thorax -0.792105 -1.09163 3.80115
lowerneck -31.2652 -4.46964 -3.28891
upperneck 25.5217 -7.39509 7.1454
head 14.3969 -2.45015 1.89238
rclavicle -5.80451e-014 2.86747e-014
rhumerus -10.6857 15.9072 -93.3308
rradius 64.2761
rwrist 30.5157
rhand -11.2999 -18.0353
rfingers 7.12502
rthumb 14.7316 -47.4919
lclavicle -5.80451e-014 2.86747e-014
lhumerus -10.5363 -41.4638 88.857
lradius 72.4568
lwrist -26.3884
lhand -15.1933 28.3282
lfingers 7.12502
lthumb 10.9783 58.0211
rfemur -51.1176 5.63471 28.8577
rtibia 56.0543
rfoot -21.1992 -18.9452
rtoes -9.17526
lfemur -70.2067 -8.92722 -12.3412
ltibia 39.9235
lfoot 4.52882 21.4909
ltoes -10.6416
260
root 2.81456 14.7906 6.70827 -155.118 -19.8344 -177.926
lowerback 36.2486 5.21776 -2.34694
upperback 15.8631 1.46343 2.89035
thorax -0.880867 -1.195 3.80666
lowerneck -31.4287 -4.31067 -3.40222
upperneck 25.7003 -7.14324 7.18005
head 14.4963 -2.34476 1.98129
rclavicle 2.32578e-014 3.73839e-014
rhumerus -10.8155 16.1066 -93.5296
rradius 64.3826
rwrist 30.4652
rhand -11.3307 -18.0549
rfingers 7.12502
rthumb 14.7019 -47.5136
lclavicle 2.32578e-014 3.73839e-014
lhumerus -10.5848 -41.0365 88.7637
lradius 72.4015
lwrist -26.2529
lhand -15.3083 28.3808
lfingers 7.12502
lthumb 10.8674 58.0796
rfemur -50.9061 5.27442 29.3378
rtibia 56.9791
rfoot -21.4289 -18.8947
rtoes -10.0522
lfemur -69.9958 -8.87384 -12.5638
ltibia 39.9293
lfoot 5.29552 20.2167
ltoes -11.0036
261
root 2.78987 14.7584 6.59322 -155.301 -19.7319 -177.83
lowerback 36.501 5.0819 -2.41187
upperback 15.8059 1.24304 2.81692
thorax -1.00833 -1.30832 3.83504
lowerneck -31.5811 -4.12982 -3.55046
upperneck 25.8786 -6.84337 7.21813
head 14.5914 -2.22334 2.08874
rclavicle 5.66536e-014 8.80865e-015
rhumerus -10.9843 16.3776 -93.7362
rradius 64.5695
rwrist 30.3834
rhand -11.4125 -18.0884
rfingers 7.12502
rthumb 14.6231 -47.5528
lclavicle 5.66536e-014 8.80865e-015
lhumerus -10.6916 -40.5448 88.6842
lradius 72.4317
lwrist -26.1603
lhand -15.4036 28.4103
lfingers 7.12502
lthumb 10.7754 58.1139
rfemur -50.7964 4.91426 29.8056
rtibia 58.1415
rfoot -21.5988 -18.7838
rtoes -11.0309
lfemur -69.7809 -8.82862 -12.7142
ltibia 40.2287
lfoot 5.99487 18.5591
ltoes -11.3619
262
root 2.76119 14.7193 6.4861 -155.257 -19.6317 -177.763
lowerback 36.3899 5.05897 -2.45079
upperback 15.7788 1.22017 2.79963
thorax -1.00061 -1.31504 3.84537
lowerneck -31.6162 -4.07494 -3.53516
upperneck 25.915 -6.75252 7.15473
head 14.6037 -2.19172 2.08019
rclavicle 3.72473e-014 -2.64694e-014
rhumerus -11.145 16.1706 -93.7776
rradius 64.8838
rwrist 30.3167
rhand -11.5322 -18.1229
rfingers 7.12502
rthumb 14.5077 -47.5957
lclavicle 3.72473e-014 -2.64694e-014
lhumerus -10.6743 -40.548 88.6592
lradius 72.5283
lwrist -26.0301
lhand -15.4917 28.4472
lfingers 7.12502
lthumb 10.6905 58.1553
rfemur -51.1636 4.50893 30.2046
rtibia 59.6524
rfoot -21.6704 -18.5681
rtoes -12.2495
lfemur -69.9236 -8.84484 -12.7603
ltibia 40.807
lfoot 6.77403 16.8294
ltoes -10.9683
263
root 2.72164 14.6598 6.3966 -154.563 -19.6241 -177.791
lowerback 35.4174 4.89381 -2.45589
upperback 15.7429 1.15491 2.79971
thorax -0.712854 -1.30732 3.87148
lowerneck -31.4933 -4.05006 -3.54278
upperneck 25.817 -6.65407 7.01865
head 14.522 -2.17495 2.04559
rclavicle -1.49585e-014 4.72983e-014
rhumerus -11.3018 15.921 -93.6292
rradius 65.3243
rwrist 30.2397
rhand -11.6399 -18.1667
rfingers 7.12502
rthumb 14.404 -47.6469
lclavicle -1.49585e-014 4.72983e-014
lhumerus -10.6285 -40.6044 88.7786
lradius 72.7188
lwrist -25.92
lhand -15.5477 28.5076
lfingers 7.12502
lthumb 10.6365 58.2184
rfemur -52.6058 3.98544 30.4636
rtibia 61.6067
rfoot -21.5333 -18.1741
rtoes -13.6629
lfemur -70.9983 -9.01558 -12.6541
ltibia 41.6267
lfoot 7.76032 15.3057
ltoes -9.28573
264
root 2.67487 14.5812 6.32044 -153.277 -19.7062 -177.924
lowerback 33.8064 4.54975 -2.38068
upperback 15.6431 0.993158 2.73391
thorax -0.249252 -1.30669 3.81721
lowerneck -31.3657 -4.04801 -3.59916
upperneck 25.6766 -6.56868 6.91028
head 14.4254 -2.16473 2.02724
rclavicle -2.13942e-014 7.45443e-016
rhumerus -11.4814 15.6622 -93.4484
rradius 65.9123
rwrist 30.1477
rhand -11.7245 -18.213
rfingers 7.12502
rthumb 14.3225 -47.699
lclavicle -2.13942e-014 7.45443e-016
lhumerus -10.5787 -40.6697 88.9072
lradius 73.016
lwrist -25.8406
lhand -15.5747 28.59
lfingers 7.12502
lthumb 10.6104 58.3021
rfemur -55.0233 3.40861 30.5951
rtibia 63.9603
rfoot -21.176 -17.6439
rtoes -15.2485
lfemur -72.9216 -9.27925 -12.4594
ltibia 42.6281
lfoot 8.7447 13.938
ltoes -5.76093
265
root 2.624 14.4928 6.24886 -151.771 -19.9868 -178.215
lowerback 31.732 4.03789 -2.17711
upperback 15.6684 0.698715 2.50995
thorax 0.429737 -1.35717 3.81621
lowerneck -31.2892 -4.05009 -3.66832
upperneck 25.5334 -6.4887 6.82437
head 14.3402 -2.15314 2.019
rclavicle 1.85615e-014 -2.48108e-014
rhumerus -11.6629 15.416 -93.2725
rradius 66.6433
rwrist 30.0097
rhand -11.7646 -18.2669
rfingers 7.12502
rthumb 14.2839 -47.7556
lclavicle 1.85615e-014 -2.48108e-014
lhumerus -10.5129 -40.7457 88.9891
lradius 73.4518
lwrist -25.7065
lhand -15.5939 28.7008
lfingers 7.12502
lthumb 10.5919 58.4139
rfemur -57.854 2.66268 30.6347
rtibia 66.5462
rfoot -20.6445 -17.0173
rtoes -16.9494
lfemur -75.186 -9.71629 -12.3131
ltibia 43.7384
lfoot 9.57315 12.6306
ltoes -0.52321
266
root 2.57436 14.4086 6.1733 -150.452 -20.3948 -178.64
lowerback 30.5123 3.4673 -1.87604
upperback 15.4671 0.264913 2.38547
thorax 0.759078 -1.47873 3.61605
lowerneck -31.3101 -4.03548 -3.74634
upperneck 25.4144 -6.39999 6.79565
head 14.2877 -2.1276 2.03756
rclavicle 3.34952e-014 3.70236e-015
rhumerus -11.8463 15.2244 -93.1722
rradius 67.5127
rwrist 29.8311
rhand -11.7462 -18.3233
rfingers 7.12502
rthumb 14.3015 -47.8108
lclavicle 3.34952e-014 3.70236e-015
lhumerus -10.4412 -40.7834 88.9594
lradius 74.0273
lwrist -25.5667
lhand -15.5718 28.8397
lfingers 7.12502
lthumb 10.6132 58.5517
rfemur -60.4701 1.79031 30.6063
rtibia 69.1196
rfoot -19.9406 -16.3018
rtoes -18.6224
lfemur -77.2081 -10.2722 -12.316
ltibia 44.8943
lfoot 10.0695 11.4576
ltoes 5.39679
267
root 2.53372 14.3481 6.08551 -149.817 -20.7475 -179.027
lowerback 30.1721 3.035 -1.6047
upperback 15.361 -0.135255 2.26951
thorax 0.816368 -1.62428 3.44081
lowerneck -31.4375 -4.00613 -3.7985
upperneck 25.3418 -6.32193 6.81661
head 14.2786 -2.09367 2.07019
rclavicle -3.11098e-014 -3.57812e-015
rhumerus -12.0371 15.0672 -93.145
rradius 68.5218
rwrist 29.5638
rhand -11.669 -18.3792
rfingers 7.12502
rthumb 14.376 -47.8614
lclavicle -3.11098e-014 -3.57812e-015
lhumerus -10.3623 -40.8208 88.8083
lradius 74.7344
lwrist -25.4433
lhand -15.5062 28.9511
lfingers 7.12502
lthumb 10.6765 58.6599
rfemur -62.1547 0.980462 30.5849
rtibia 71.422
rfoot -19.047 -15.5358
rtoes -20.0929
lfemur -78.3339 -10.7598 -12.4826
ltibia 46.0575
lfoot 10.1275 10.468
ltoes 11.5026
